<?xml version="1.0" encoding="utf-8"?>
<!-- Generator: Adobe Illustrator 23.0.1, SVG Export Plug-In . SVG Version: 6.00 Build 0)  -->
<svg version="1.1" id="Layer_1" xmlns="http://www.w3.org/2000/svg" xmlns:xlink="http://www.w3.org/1999/xlink" x="0px" y="0px"
	 viewBox="0 0 100 100" style="enable-background:new 0 0 100 100;" xml:space="preserve">
<path d="M83,5H53c-0.1,0-0.3,0-0.4,0c-0.1,0-0.2,0-0.2,0.1c0,0-0.1,0-0.1,0c-0.1,0-0.2,0.1-0.3,0.1c0,0-0.1,0-0.1,0
	c-0.1,0.1-0.2,0.2-0.3,0.2l-18,18c-0.1,0.1-0.2,0.2-0.2,0.3c0,0,0,0-0.1,0.1c0,0.1-0.1,0.2-0.1,0.3c0,0,0,0.1,0,0.1
	c0,0.1-0.1,0.2-0.1,0.2c0,0.1,0,0.3,0,0.4v12H17c-4.4,0-8,3.6-8,8v42c0,4.4,3.6,8,8,8h28c4.4,0,8-3.6,8-8v-2h30c4.4,0,8-3.6,8-8V13
	C91,8.6,87.4,5,83,5z M51,11.8V19c0,2.2-1.8,4-4,4h-7.2L51,11.8z M49,87c0,2.2-1.8,4-4,4H17c-2.2,0-4-1.8-4-4V55h36V87z M49,51H13
	v-6c0-2.2,1.8-4,4-4h28c2.2,0,4,1.8,4,4V51z M87,77c0,2.2-1.8,4-4,4H53V45c0-4.4-3.6-8-8-8h-8V27h10c4.4,0,8-3.6,8-8V9h28
	c2.2,0,4,1.8,4,4V77z M81,69c0,1.1-0.9,2-2,2H61c-1.1,0-2-0.9-2-2c0-1.1,0.9-2,2-2h18C80.1,67,81,67.9,81,69z M81,59
	c0,1.1-0.9,2-2,2H61c-1.1,0-2-0.9-2-2c0-1.1,0.9-2,2-2h18C80.1,57,81,57.9,81,59z M73,40c0-1.7-1.3-3-3-3c-3.9,0-7-3.1-7-7
	c0-3.2,2.1-5.8,5-6.7V21c0-1.1,0.9-2,2-2s2,0.9,2,2v2.3c2.9,0.9,5,3.5,5,6.7c0,1.1-0.9,2-2,2s-2-0.9-2-2c0-1.7-1.3-3-3-3s-3,1.3-3,3
	c0,1.6,1.3,3,3,3c3.9,0,7,3.1,7,7c0,3.2-2.1,5.8-5,6.7V49c0,1.1-0.9,2-2,2s-2-0.9-2-2v-2.3c-2.9-0.9-5-3.5-5-6.7c0-1.1,0.9-2,2-2
	s2,0.9,2,2c0,1.6,1.3,3,3,3S73,41.6,73,40z M19,63.4c0-0.1,0-0.3,0-0.4s0-0.3,0-0.4c0-0.1,0.1-0.2,0.1-0.4c0-0.1,0.1-0.2,0.2-0.3
	c0.1-0.1,0.1-0.2,0.2-0.3c0.5-0.5,1.2-0.7,1.8-0.5c0.1,0,0.2,0.1,0.4,0.1c0.1,0.1,0.2,0.1,0.3,0.2s0.2,0.2,0.3,0.2
	c0.1,0.1,0.2,0.2,0.2,0.3c0.1,0.1,0.1,0.2,0.2,0.3c0.1,0.1,0.1,0.2,0.1,0.4c0,0.1,0,0.3,0,0.4s0,0.3,0,0.4c0,0.1-0.1,0.3-0.1,0.4
	c0,0.1-0.1,0.2-0.2,0.3c-0.1,0.1-0.2,0.2-0.3,0.3C22,64.8,21.5,65,21,65c-0.5,0-1-0.2-1.4-0.6c-0.1-0.1-0.2-0.2-0.2-0.3
	c-0.1-0.1-0.1-0.2-0.2-0.3C19.1,63.6,19.1,63.5,19,63.4z M19,73.4c0-0.1,0-0.3,0-0.4s0-0.3,0-0.4c0-0.1,0.1-0.3,0.1-0.4
	c0-0.1,0.1-0.2,0.2-0.3c0.1-0.1,0.1-0.2,0.2-0.3c0.8-0.8,2.1-0.8,2.8,0c0.1,0.1,0.2,0.2,0.2,0.3c0.1,0.1,0.1,0.2,0.2,0.3
	c0.1,0.1,0.1,0.2,0.1,0.4c0,0.1,0,0.3,0,0.4s0,0.3,0,0.4c0,0.1-0.1,0.3-0.1,0.4c0,0.1-0.1,0.2-0.2,0.3c-0.1,0.1-0.2,0.2-0.2,0.3
	c-0.2,0.2-0.4,0.3-0.6,0.4C21.5,75,21.3,75,21,75s-0.5,0-0.8-0.2c-0.2-0.1-0.5-0.2-0.6-0.4c-0.1-0.1-0.2-0.2-0.2-0.3
	c-0.1-0.1-0.1-0.2-0.2-0.3C19.1,73.6,19.1,73.5,19,73.4z M19.2,83.8C19,83.5,19,83.3,19,83c0-0.1,0-0.3,0-0.4c0-0.1,0.1-0.3,0.1-0.4
	c0-0.1,0.1-0.2,0.2-0.3c0.1-0.1,0.1-0.2,0.2-0.3c0.7-0.8,2.1-0.8,2.8,0c0.1,0.1,0.2,0.2,0.2,0.3c0.1,0.1,0.1,0.2,0.2,0.3
	c0.1,0.1,0.1,0.2,0.1,0.4c0,0.1,0,0.3,0,0.4c0,0.3,0,0.5-0.2,0.8c-0.1,0.2-0.2,0.5-0.4,0.6C22,84.8,21.5,85,21,85s-1-0.2-1.4-0.6
	C19.4,84.2,19.2,84,19.2,83.8z M29,63.4c0-0.1,0-0.3,0-0.4s0-0.3,0-0.4c0-0.1,0.1-0.2,0.1-0.4c0-0.1,0.1-0.2,0.2-0.3
	c0.1-0.1,0.1-0.2,0.2-0.3c0.7-0.8,2.1-0.8,2.8,0c0.1,0.1,0.2,0.2,0.2,0.3c0.1,0.1,0.1,0.2,0.2,0.3c0.1,0.1,0.1,0.2,0.1,0.4
	c0,0.1,0,0.3,0,0.4s0,0.3,0,0.4c0,0.1-0.1,0.3-0.1,0.4c0,0.1-0.1,0.2-0.2,0.3c-0.1,0.1-0.2,0.2-0.3,0.3c-0.2,0.2-0.4,0.3-0.6,0.4
	C31.5,65,31.3,65,31,65c-0.5,0-1-0.2-1.4-0.6c-0.1-0.1-0.2-0.2-0.2-0.3c-0.1-0.1-0.1-0.2-0.2-0.3C29.1,63.6,29.1,63.5,29,63.4z
	 M29,73.4c0-0.1,0-0.3,0-0.4s0-0.3,0-0.4c0-0.1,0.1-0.3,0.1-0.4c0-0.1,0.1-0.2,0.2-0.3c0.1-0.1,0.1-0.2,0.2-0.3
	c0.1-0.1,0.2-0.2,0.3-0.2s0.2-0.1,0.3-0.2c0.1,0,0.2-0.1,0.4-0.1c0.7-0.1,1.3,0.1,1.8,0.5c0.1,0.1,0.2,0.2,0.2,0.3
	c0.1,0.1,0.1,0.2,0.2,0.3c0.1,0.1,0.1,0.2,0.1,0.4c0,0.1,0,0.3,0,0.4c0,0.5-0.2,1-0.6,1.4C32,74.8,31.5,75,31,75s-1-0.2-1.4-0.6
	c-0.1-0.1-0.2-0.2-0.3-0.3c-0.1-0.1-0.1-0.2-0.2-0.3C29.1,73.6,29.1,73.5,29,73.4z M29.2,83.8C29,83.5,29,83.3,29,83
	c0-0.1,0-0.3,0-0.4c0-0.1,0.1-0.3,0.1-0.4c0-0.1,0.1-0.2,0.2-0.3c0.1-0.1,0.1-0.2,0.2-0.3c0.5-0.5,1.1-0.7,1.8-0.5
	c0.1,0,0.2,0.1,0.4,0.1c0.1,0.1,0.2,0.1,0.3,0.2c0.1,0.1,0.2,0.2,0.3,0.2c0.1,0.1,0.2,0.2,0.2,0.3c0.1,0.1,0.1,0.2,0.2,0.3
	c0.1,0.1,0.1,0.2,0.1,0.4c0,0.1,0,0.3,0,0.4c0,0.3,0,0.5-0.2,0.8c-0.1,0.2-0.2,0.5-0.4,0.6c-0.1,0.1-0.2,0.2-0.3,0.3
	c-0.1,0.1-0.2,0.1-0.3,0.2s-0.2,0.1-0.4,0.1c-0.1,0-0.3,0-0.4,0c-0.5,0-1-0.2-1.4-0.6C29.4,84.2,29.2,84,29.2,83.8z M39,63.4
	c0-0.1,0-0.3,0-0.4s0-0.3,0-0.4c0-0.1,0.1-0.2,0.1-0.4c0-0.1,0.1-0.2,0.2-0.3c0.1-0.1,0.1-0.2,0.2-0.3c0.7-0.8,2.1-0.8,2.8,0
	c0.1,0.1,0.2,0.2,0.2,0.3c0.1,0.1,0.1,0.2,0.2,0.3c0.1,0.1,0.1,0.2,0.1,0.4c0,0.1,0,0.3,0,0.4s0,0.3,0,0.4c0,0.1-0.1,0.3-0.1,0.4
	c0,0.1-0.1,0.2-0.2,0.3c-0.1,0.1-0.2,0.2-0.2,0.3C42,64.8,41.5,65,41,65c-0.5,0-1-0.2-1.4-0.6c-0.1-0.1-0.2-0.2-0.3-0.3
	c-0.1-0.1-0.1-0.2-0.2-0.3C39.1,63.6,39.1,63.5,39,63.4z M39,83V73c0-1.1,0.9-2,2-2s2,0.9,2,2v10c0,1.1-0.9,2-2,2S39,84.1,39,83z"/>
</svg>
