<?xml version="1.0"?>
<svg xmlns="http://www.w3.org/2000/svg" id="Line_expand" data-name="Line expand" width="512" height="512" viewBox="0 0 512 512"><g><path d="M376,468a12.013,12.013,0,0,1-12,12H148a12.013,12.013,0,0,1-12-12V392H120v76a28.032,28.032,0,0,0,28,28H364a28.032,28.032,0,0,0,28-28V456H376Z"/><path d="M288,400H168v-8H152v16a8,8,0,0,0,8,8H288Z"/><path d="M360,72V56a8,8,0,0,0-8-8H224V64H344v8Z"/><path d="M232,448a24,24,0,1,0,24-24A24.027,24.027,0,0,0,232,448Zm32,0a8,8,0,1,1-8-8A8.009,8.009,0,0,1,264,448Z"/><path d="M247.21,371.465a8,8,0,0,0-.963-8.463L216,325.194V244a28.032,28.032,0,0,0-28-28H168V184h72a8,8,0,0,0,6.146-13.122L208,125.1V68a28.032,28.032,0,0,0-28-28H136.686A12.021,12.021,0,0,1,148,32H364a12.013,12.013,0,0,1,12,12V72h16V44a28.032,28.032,0,0,0-28-28H148a28.044,28.044,0,0,0-27.715,24H60A28.032,28.032,0,0,0,32,68v88a28.032,28.032,0,0,0,28,28H88V168H60a12.013,12.013,0,0,1-12-12V68A12.013,12.013,0,0,1,60,56H180a12.013,12.013,0,0,1,12,12v60a8,8,0,0,0,1.854,5.122L222.92,168H104v16h16v32H44a28.032,28.032,0,0,0-28,28V348a28.032,28.032,0,0,0,28,28H240A8,8,0,0,0,247.21,371.465ZM136,184h16v32H136ZM44,360a12.013,12.013,0,0,1-12-12V244a12.013,12.013,0,0,1,12-12H188a12.013,12.013,0,0,1,12,12v84a8,8,0,0,0,1.753,5l21.6,27Z"/><path d="M152,264a31.994,31.994,0,0,0-26.66,14.32L95.867,266.531a24.035,24.035,0,1,0-6.932,14.459L120.1,293.456q-.1,1.26-.1,2.544t.1,2.544L88.935,311.01a23.934,23.934,0,1,0,6.932,14.459L125.34,313.68A32,32,0,1,0,152,264Zm-80,8a8,8,0,1,1,8-8A8.009,8.009,0,0,1,72,272Zm0,64a8,8,0,1,1,8-8A8.009,8.009,0,0,1,72,336Zm80-24a16,16,0,1,1,16-16A16.019,16.019,0,0,1,152,312Z"/><path d="M468,88H324a28.032,28.032,0,0,0-28,28v81.194L265.753,235A8,8,0,0,0,272,248h72v48H272a8,8,0,0,0-6.146,13.122L304,354.9V412a28.032,28.032,0,0,0,28,28h76V424H332a12.013,12.013,0,0,1-12-12V352a8,8,0,0,0-1.854-5.122L289.08,312H452a12.013,12.013,0,0,1,12,12v88a12.013,12.013,0,0,1-12,12H424v16h28a28.032,28.032,0,0,0,28-28V324a28.032,28.032,0,0,0-28-28H392V248h76a28.032,28.032,0,0,0,28-28V116A28.032,28.032,0,0,0,468,88ZM376,296H360V248h16Zm104-76a12.013,12.013,0,0,1-12,12H288.645l21.6-27A8,8,0,0,0,312,200V116a12.013,12.013,0,0,1,12-12H468a12.013,12.013,0,0,1,12,12Z"/><path d="M443.578,160.845l-80-40A8,8,0,0,0,352,128v80a8,8,0,0,0,11.578,7.155l80-40a8,8,0,0,0,0-14.31ZM368,195.056V140.944L422.111,168Z"/><path d="M454.554,371.68a8,8,0,0,0,0-7.36C443.123,342.256,418.676,328,392.271,328s-50.852,14.256-62.282,36.32a8,8,0,0,0,0,7.36c11.43,22.064,35.878,36.32,62.282,36.32S443.123,393.744,454.554,371.68ZM392.271,392c-18.956,0-36.525-9.3-45.948-24,9.423-14.7,26.992-24,45.948-24s36.525,9.3,45.949,24C428.8,382.7,411.228,392,392.271,392Z"/><circle cx="392" cy="368" r="16"/><path d="M90.632,158.5a8,8,0,0,0,8.476.469l20.881-11.516,20.883,11.516a8,8,0,0,0,11.758-8.3l-4.073-24.914,17.191-17.579a8,8,0,0,0-4.514-13.5L137.785,91.1l-10.557-22.44a8,8,0,0,0-14.478,0L102.194,91.1,78.745,94.678a8,8,0,0,0-4.514,13.5l17.191,17.579-4.073,24.914A8,8,0,0,0,90.632,158.5Zm18.19-52.222a8,8,0,0,0,6.033-4.5l5.134-10.912,5.134,10.912a8,8,0,0,0,6.033,4.5l12.247,1.867-9.114,9.319a8,8,0,0,0-2.175,6.885l2.07,12.66-10.331-5.7a8,8,0,0,0-7.728,0l-10.33,5.7,2.07-12.659a8,8,0,0,0-2.175-6.885l-9.114-9.319Z"/></g></svg>
